<svg width="726" height="726" viewBox="0 0 726 726" fill="none" xmlns="http://www.w3.org/2000/svg">
<path d="M725.264 0.73584H0.73584V725.264H725.264V0.73584Z" fill="#239F91"/>
<path d="M579.806 192.492L544.564 344.861L509.668 192.492H468.552L445.058 544.564H496.884L504.485 388.74L544.564 544.564L584.643 388.74L592.244 544.564H644.07L620.575 192.492H579.806ZM126.846 322.057H167.27V417.072H126.846V544.909H76.4019V192.492H182.818L191.456 285.088H126.846V322.057ZM313.42 181.09C313.42 181.09 293.726 181.09 275.414 195.602C275.414 195.602 258.139 209.767 244.664 235.68C244.664 235.68 215.987 290.271 215.987 367.319C215.987 367.319 215.987 444.021 244.664 498.611C244.664 498.611 258.139 524.179 275.414 538.345C275.414 538.345 293.726 553.201 313.42 553.201C313.42 553.201 333.459 553.201 351.425 538.345C351.425 538.345 369.046 524.179 382.521 498.611C382.521 498.611 411.198 444.021 411.198 367.319C411.198 367.319 411.198 290.271 382.521 235.68C382.521 235.68 369.046 209.767 351.425 195.602C351.425 195.602 333.114 181.09 313.42 181.09ZM313.42 278.869C313.42 278.869 332.768 278.869 346.243 304.782C346.243 304.782 359.718 330.695 359.718 367.319C359.718 367.319 359.718 403.942 346.243 429.855C346.243 429.855 332.768 455.423 313.42 455.423C313.42 455.423 294.417 455.423 280.597 429.855C280.597 429.855 267.122 403.942 267.122 367.319C267.122 367.319 267.122 330.695 280.597 304.782C280.597 304.782 294.417 278.869 313.42 278.869Z" fill="white"/>
<path d="M564.603 578.769V663.764H577.387V578.769H564.603ZM535.235 605.028V632.323C535.235 632.323 535.235 640.96 532.471 646.488C532.471 646.488 528.671 654.09 519.687 654.09C519.687 654.09 513.814 653.744 511.395 649.598C511.395 649.598 508.977 645.452 508.977 635.432V605.028H496.193V639.578C496.193 639.578 496.193 652.017 501.721 658.581C501.721 658.581 507.249 665.146 518.305 665.146L528.325 663.073L535.581 657.545V663.764H548.364V605.028H535.235ZM428.819 578.769V663.764H441.948V636.469C441.948 636.469 441.948 628.177 444.712 622.648C444.712 622.648 448.513 614.702 457.496 614.702C457.496 614.702 463.37 615.047 465.788 619.539C465.788 619.539 468.207 623.685 468.207 633.359V663.764H480.991V629.213C480.991 629.213 480.991 616.775 475.463 610.21C475.463 610.21 469.589 603.646 458.878 603.646C458.878 603.646 448.167 603.646 441.948 610.901V578.769H428.819ZM418.454 649.943L416.726 650.98L406.361 654.09C406.361 654.09 397.723 654.09 392.886 647.87C392.886 647.87 389.086 642.342 389.086 634.396C389.086 634.396 389.086 626.449 393.232 620.921C393.232 620.921 398.069 614.702 405.67 614.702C405.67 614.702 410.853 614.702 416.381 617.12L418.108 617.811L419.145 606.41L418.454 606.064L405.325 603.646C405.325 603.646 392.195 603.646 383.903 612.283C383.903 612.283 375.611 620.921 375.611 634.396C375.611 634.396 375.611 647.525 383.903 656.163C383.903 656.163 392.541 665.146 405.325 665.146L418.799 662.727L419.49 662.382L418.454 649.943ZM366.282 618.502L367.664 606.41L366.628 606.064L353.153 603.646C353.153 603.646 343.479 603.646 337.951 608.828C337.951 608.828 332.423 613.665 332.423 622.303C332.423 622.303 332.423 628.522 337.26 633.014L346.934 639.233L353.844 642.688C353.844 642.688 356.608 644.761 356.608 647.525C356.608 647.525 356.608 651.671 352.462 653.399L347.279 654.09L341.751 653.399L335.187 650.289L333.114 649.252L332.423 661.345L333.114 661.691C333.114 661.691 339.333 665.146 349.352 665.146C349.352 665.146 357.645 665.146 363.518 660.654C363.518 660.654 370.083 655.472 370.083 646.488C370.083 646.488 370.083 639.233 365.246 634.741C365.246 634.741 362.136 631.977 355.226 628.868L348.316 625.067C348.316 625.067 345.897 622.994 345.897 620.23C345.897 620.23 345.897 617.466 348.661 616.084L354.535 614.702L359.372 615.393L364.555 617.466L366.282 618.502ZM270.231 578.769V663.764H283.015V636.469C283.015 636.469 283.015 628.177 285.779 622.648C285.779 622.648 289.58 614.702 298.563 614.702C298.563 614.702 304.437 615.047 306.855 619.539C306.855 619.539 309.274 623.685 309.274 633.359V663.764H322.057V629.213C322.057 629.213 322.057 616.775 316.529 610.21C316.529 610.21 311.001 603.646 299.945 603.646C299.945 603.646 289.58 603.646 283.015 610.901V578.769H270.231ZM257.793 617.12L259.175 617.811L260.557 606.41L259.521 606.064C259.521 606.064 253.992 603.646 246.391 603.646C246.391 603.646 233.262 603.646 224.97 612.283C224.97 612.283 216.678 620.921 216.678 634.396C216.678 634.396 216.678 647.525 225.315 656.163C225.315 656.163 233.608 665.146 246.391 665.146L259.866 662.727L260.903 662.382L259.866 649.943L258.139 650.98L247.773 654.09C247.773 654.09 238.79 654.09 234.299 647.87C234.299 647.87 230.152 642.342 230.152 634.396C230.152 634.396 230.152 626.449 234.299 620.921C234.299 620.921 239.136 614.702 247.082 614.702L257.793 617.12ZM180.054 603.646C180.054 603.646 166.925 603.646 158.633 612.283C158.633 612.283 150.34 620.921 150.34 634.396C150.34 634.396 150.34 647.525 158.978 656.163C158.978 656.163 167.27 665.146 180.054 665.146C180.054 665.146 192.838 665.146 201.475 656.163C201.475 656.163 209.768 647.525 209.768 634.396C209.768 634.396 209.768 620.921 201.821 612.283C201.821 612.283 193.183 603.646 180.054 603.646ZM180.054 614.702C180.054 614.702 187.655 614.702 192.147 620.921C192.147 620.921 196.293 626.795 196.293 634.396C196.293 634.396 196.293 642.342 192.492 647.87C192.492 647.87 188.001 654.09 180.054 654.09C180.054 654.09 172.453 654.09 167.961 647.87C167.961 647.87 163.815 642.342 163.815 634.396C163.815 634.396 163.815 626.795 167.961 620.921C167.961 620.921 172.798 614.702 180.054 614.702ZM124.082 584.643V616.429H89.8766V584.643H76.4019V663.764H89.8766V628.868H124.082V663.764H137.557V584.643H124.082ZM617.811 603.646C617.811 603.646 605.373 603.646 597.772 611.938C597.772 611.938 590.171 620.23 590.171 633.359C590.171 633.359 590.171 648.561 598.118 656.854C598.118 656.854 605.719 665.146 620.23 665.146L637.16 662.036L639.233 661V647.179L637.16 648.907L630.595 652.362L620.921 654.09C620.921 654.09 614.356 654.09 609.519 649.943C609.519 649.943 604.337 645.452 603.646 638.196H643.724V636.814C643.724 636.814 643.724 603.646 617.811 603.646ZM617.466 614.702C617.466 614.702 623.34 614.702 626.795 618.848C626.795 618.848 629.904 622.303 630.25 627.831H603.991C603.991 627.831 604.682 622.994 607.101 619.539C607.101 619.539 610.901 614.702 617.466 614.702Z" fill="white"/>
</svg>
